<?xml version="1.0" encoding="UTF-8" standalone="no"?>
<!DOCTYPE svg PUBLIC "-//W3C//DTD SVG 1.1//EN" "http://www.w3.org/Graphics/SVG/1.1/DTD/svg11.dtd">
<!-- Generated by Microsoft Visio, SVG Export pzem.svg Page-1 -->
<svg xmlns="http://www.w3.org/2000/svg" xmlns:xlink="http://www.w3.org/1999/xlink" xmlns:ev="http://www.w3.org/2001/xml-events"
		xmlns:v="http://schemas.microsoft.com/visio/2003/SVGExtensions/" width="8.26772in" height="11.6929in"
		viewBox="0 0 595.276 841.89" xml:space="preserve" color-interpolation-filters="sRGB" class="st31">
	<v:documentProperties v:langID="1033" v:metric="true" v:viewMarkup="false">
		<v:userDefs>
			<v:ud v:nameU="msvNoAutoConnect" v:val="VT0(1):26"/>
		</v:userDefs>
	</v:documentProperties>

	<style type="text/css">
	<![CDATA[
		.st1 {fill:#eaeff5;stroke:#00b0f0;stroke-linecap:round;stroke-linejoin:round;stroke-width:0.24}
		.st2 {fill:#000000;font-family:Calibri;font-size:1.99999em}
		.st3 {fill:#dde2cd;stroke:#000000;stroke-linecap:round;stroke-linejoin:round;stroke-width:0.24}
		.st4 {marker-end:url(#mrkr5-19);marker-start:url(#mrkr5-17);stroke:#000000;stroke-linecap:round;stroke-linejoin:round;stroke-width:1.75}
		.st5 {fill:#000000;fill-opacity:1;stroke:#000000;stroke-opacity:1;stroke-width:0.40983606557377}
		.st6 {fill:#ea700d;stroke:#000000;stroke-linecap:round;stroke-linejoin:round;stroke-width:0.72}
		.st7 {fill:#ffffff;font-family:Calibri;font-size:1.00001em;font-weight:bold}
		.st8 {fill:#0070c0;stroke:#000000;stroke-linecap:round;stroke-linejoin:round;stroke-width:0.72}
		.st9 {fill:#9dbb61;stroke:#000000;stroke-linecap:round;stroke-linejoin:round;stroke-width:0.72}
		.st10 {fill:#ff0000;stroke:#000000;stroke-linecap:round;stroke-linejoin:round;stroke-width:0.72}
		.st11 {font-size:1em}
		.st12 {fill:#000000;stroke:#000000;stroke-linecap:round;stroke-linejoin:round;stroke-width:0.72}
		.st13 {fill:none;stroke:none;stroke-linecap:round;stroke-linejoin:round;stroke-width:0.75}
		.st14 {fill:#000000;font-family:Calibri;font-size:1.00001em}
		.st15 {stroke:#c05046;stroke-linecap:round;stroke-linejoin:round;stroke-width:1.5}
		.st16 {stroke:#00b0f0;stroke-linecap:round;stroke-linejoin:round;stroke-width:1.75}
		.st17 {fill:#ffffff;stroke:#000000;stroke-linecap:round;stroke-linejoin:round;stroke-width:0.72}
		.st18 {fill:#000000;font-family:Calibri;font-size:0.666664em;font-weight:bold}
		.st19 {fill:#000000;font-family:Calibri;font-size:0.499992em}
		.st20 {stroke:#ff0000;stroke-linecap:round;stroke-linejoin:round;stroke-width:1.5}
		.st21 {stroke:#bf9000;stroke-linecap:round;stroke-linejoin:round;stroke-width:1.5}
		.st22 {fill:#ffffff;stroke:none;stroke-linecap:butt;stroke-width:7.2}
		.st23 {fill:#000000;font-family:Calibri;font-size:0.666664em}
		.st24 {fill:#923931;font-family:Calibri;font-size:1.00001em}
		.st25 {fill:#ff0000;font-family:Calibri;font-size:1.00001em}
		.st26 {fill:#7f6000;font-family:Calibri;font-size:1.00001em}
		.st27 {stroke:#000000;stroke-linecap:round;stroke-linejoin:round;stroke-width:0.239976}
		.st28 {stroke:#ff0000;stroke-linecap:round;stroke-linejoin:round;stroke-width:0.75}
		.st29 {stroke:#9c4a09;stroke-linecap:round;stroke-linejoin:round;stroke-width:1}
		.st30 {stroke:#7e649e;stroke-linecap:round;stroke-linejoin:round;stroke-width:0.75}
		.st31 {fill:none;fill-rule:evenodd;font-size:12px;overflow:visible;stroke-linecap:square;stroke-miterlimit:3}
	]]>
	</style>

	<defs id="Markers">
		<g id="lend5">
			<path d="M 2 1 L 0 0 L 1.98117 -0.993387 C 1.67173 -0.364515 1.67301 0.372641 1.98465 1.00043 " style="stroke:none"/>
		</g>
		<marker id="mrkr5-17" class="st5" v:arrowType="5" v:arrowSize="2" v:setback="4.06429" refX="4.0642857142857" orient="auto"
				markerUnits="strokeWidth" overflow="visible">
			<use xlink:href="#lend5" transform="scale(2.44) "/>
		</marker>
		<marker id="mrkr5-19" class="st5" v:arrowType="5" v:arrowSize="2" v:setback="4.27" refX="-4.27" orient="auto"
				markerUnits="strokeWidth" overflow="visible">
			<use xlink:href="#lend5" transform="scale(-2.44,-2.44) "/>
		</marker>
	</defs>
	<g v:mID="0" v:index="1" v:groupContext="foregroundPage">
		<title>Page-1</title>
		<v:pageProperties v:drawingScale="0.0393701" v:pageScale="0.0393701" v:drawingUnits="24" v:shadowOffsetX="8.50394"
				v:shadowOffsetY="-8.50394"/>
		<v:layer v:name="Offices" v:index="0"/>
		<v:layer v:name="Connector" v:index="1"/>
		<g id="group170-1" transform="translate(276.712,-633.524)" v:mID="170" v:groupContext="group">
			<title>Sheet.170</title>
			<g id="shape132-2" v:mID="132" v:groupContext="shape">
				<title>Sheet.132</title>
				<desc>ESP32</desc>
				<v:textBlock v:margins="rect(4,4,4,4)" v:tabSpace="42.5197"/>
				<v:textRect cx="62.3622" cy="782.778" width="124.73" height="118.224"/>
				<rect x="0" y="723.666" width="124.724" height="118.224" class="st1"/>
				<text x="32.63" y="789.98" class="st2" v:langID="1033"><v:paragraph v:horizAlign="1"/><v:tabList/>ESP32</text>			</g>
		</g>
		<g id="shape30-5" v:mID="30" v:groupContext="shape" transform="translate(126.567,-259.331)">
			<title>Concentric layer 2</title>
			<v:userDefs>
				<v:ud v:nameU="ControlX" v:val="VT0(0.39370078740157):24"/>
				<v:ud v:nameU="Scale" v:val="VT0(1):26"/>
				<v:ud v:nameU="AntiScale" v:val="VT0(1):26"/>
				<v:ud v:nameU="visVersion" v:val="VT0(15):26"/>
				<v:ud v:nameU="ControlX" v:prompt="" v:val="VT0(0.15748031):1"/>
			</v:userDefs>
			<path d="M0 817.49 A24.3974 24.3974 -180 0 0 48.79 817.49 A24.3974 24.3974 -180 0 0 0 817.49 ZM11.34 817.49 A13.0588
						 13.0588 0 0 1 37.46 817.49 A13.0588 13.0588 0 0 1 11.34 817.49 Z" class="st3"/>
		</g>
		<g id="group33-7" transform="translate(126.567,-408.788)" v:mID="33" v:groupContext="group">
			<title>Sheet.33</title>
			<g id="shape2-8" v:mID="2" v:groupContext="shape">
				<title>Sheet.2</title>
				<desc>PZEM</desc>
				<v:textBlock v:margins="rect(4,4,4,4)" v:tabSpace="42.5197"/>
				<v:textRect cx="62.3622" cy="753.323" width="124.73" height="177.134"/>
				<rect x="0" y="664.756" width="124.724" height="177.134" class="st1"/>
				<text x="34.42" y="760.52" class="st2" v:langID="1033"><v:paragraph v:horizAlign="1"/><v:tabList/>PZEM</text>			</g>
			<g id="shape9-11" v:mID="9" v:groupContext="shape" transform="translate(49.8653,-38.803)">
				<title>Sheet.9</title>
				<path d="M0 834.78 L0 834.42 L0 832.24 A9.64506 9.64506 0 0 1 9.65 822.6 L18.44 822.6 A9.64506 9.64506 0 0 1 28.09
							 832.24 L28.09 834.42" class="st4"/>
			</g>
			<g id="group10-20" transform="translate(38.5268,-40.7727)" v:mID="10" v:groupContext="group">
				<title>Sheet.10</title>
			</g>
			<g id="shape14-21" v:mID="14" v:groupContext="shape" v:layerMember="0" transform="translate(97.1201,-9.98952)">
				<title>Sheet.14</title>
				<desc>L</desc>
				<v:textBlock v:margins="rect(4,4,4,4)" v:tabSpace="42.5197"/>
				<v:textRect cx="9.50446" cy="827.483" width="19.01" height="28.8135"/>
				<rect x="0" y="813.076" width="19.0089" height="28.8135" class="st6"/>
				<text x="6.97" y="831.08" class="st7" v:langID="1033"><v:paragraph v:horizAlign="1"/><v:tabList/>L</text>			</g>
			<g id="shape19-24" v:mID="19" v:groupContext="shape" v:layerMember="0" transform="translate(66.0305,-10.223)">
				<title>Sheet.19</title>
				<desc>N</desc>
				<v:textBlock v:margins="rect(4,4,4,4)" v:tabSpace="42.5197"/>
				<v:textRect cx="9.50446" cy="827.483" width="19.01" height="28.8135"/>
				<rect x="0" y="813.076" width="19.0089" height="28.8135" class="st8"/>
				<text x="5.55" y="831.08" class="st7" v:langID="1033"><v:paragraph v:horizAlign="1"/><v:tabList/>N</text>			</g>
			<g id="shape20-27" v:mID="20" v:groupContext="shape" v:layerMember="0" transform="translate(44.3538,-10.4565)">
				<title>Sheet.20</title>
				<desc>T</desc>
				<v:textBlock v:margins="rect(4,4,4,4)" v:tabSpace="42.5197"/>
				<v:textRect cx="9.50446" cy="827.483" width="19.01" height="28.8135"/>
				<rect x="0" y="813.076" width="19.0089" height="28.8135" class="st9"/>
				<text x="6.53" y="831.08" class="st7" v:langID="1033"><v:paragraph v:horizAlign="1"/><v:tabList/>T</text>			</g>
			<g id="shape21-30" v:mID="21" v:groupContext="shape" v:layerMember="0" transform="translate(10.5465,-10.4565)">
				<title>Sheet.21</title>
				<desc>C</desc>
				<v:textBlock v:margins="rect(4,4,4,4)" v:tabSpace="42.5197"/>
				<v:textRect cx="9.50446" cy="827.483" width="19.01" height="28.8135"/>
				<rect x="0" y="813.076" width="19.0089" height="28.8135" class="st9"/>
				<text x="6.33" y="831.08" class="st7" v:langID="1033"><v:paragraph v:horizAlign="1"/><v:tabList/>C</text>			</g>
			<g id="group28-33" transform="translate(22.8436,-126.677)" v:mID="28" v:groupContext="group">
				<title>Sheet.28</title>
				<g id="group26-34" transform="translate(0,-17.9582)" v:mID="26" v:groupContext="group">
					<title>Sheet.26</title>
					<g id="shape22-35" v:mID="22" v:groupContext="shape" v:layerMember="0" transform="translate(60.0283,0)">
						<title>Sheet.22</title>
						<desc>Vcc</desc>
						<v:textBlock v:margins="rect(4,4,4,4)" v:tabSpace="42.5197"/>
						<v:textRect cx="9.50446" cy="827.483" width="19.01" height="28.8135"/>
						<rect x="0" y="813.076" width="19.0089" height="28.8135" class="st10"/>
						<text x="5.96" y="823.88" class="st7" v:langID="1033"><v:paragraph v:horizAlign="1"/><v:tabList/>V<tspan
									x="4.48" dy="1.2em" class="st11">cc</tspan></text>					</g>
					<g id="shape23-39" v:mID="23" v:groupContext="shape" v:layerMember="0" transform="translate(40.0189,0)">
						<title>Sheet.23</title>
						<desc>Rx</desc>
						<v:textBlock v:margins="rect(4,4,4,4)" v:tabSpace="42.5197"/>
						<v:textRect cx="9.50446" cy="827.483" width="19.01" height="28.8135"/>
						<rect x="0" y="813.076" width="19.0089" height="28.8135" class="st8"/>
						<text x="6.13" y="823.88" class="st7" v:langID="1033"><v:paragraph v:horizAlign="1"/><v:tabList/>R<tspan
									x="6.75" dy="1.2em" class="st11">x</tspan></text>					</g>
					<g id="shape24-43" v:mID="24" v:groupContext="shape" v:layerMember="0" transform="translate(20.0094,0)">
						<title>Sheet.24</title>
						<desc>Tx</desc>
						<v:textBlock v:margins="rect(4,4,4,4)" v:tabSpace="42.5197"/>
						<v:textRect cx="9.50446" cy="827.483" width="19.01" height="28.8135"/>
						<rect x="0" y="813.076" width="19.0089" height="28.8135" class="st9"/>
						<text x="6.53" y="823.88" class="st7" v:langID="1033"><v:paragraph v:horizAlign="1"/><v:tabList/>T<tspan
									x="6.75" dy="1.2em" class="st11">x</tspan></text>					</g>
					<g id="shape25-47" v:mID="25" v:groupContext="shape" v:layerMember="0">
						<title>Sheet.25</title>
						<desc>G</desc>
						<v:textBlock v:margins="rect(4,4,4,4)" v:tabSpace="42.5197"/>
						<v:textRect cx="9.50446" cy="827.483" width="19.01" height="28.8135"/>
						<rect x="0" y="813.076" width="19.0089" height="28.8135" class="st12"/>
						<text x="5.68" y="831.08" class="st7" v:langID="1033"><v:paragraph v:horizAlign="1"/><v:tabList/>G</text>					</g>
				</g>
				<g id="shape27-50" v:mID="27" v:groupContext="shape" transform="translate(6.21151,0)">
					<title>Sheet.27</title>
					<desc>UART</desc>
					<v:textBlock v:margins="rect(4,4,4,4)" v:tabSpace="42.5197"/>
					<v:textRect cx="33.3071" cy="832.677" width="66.62" height="18.4252"/>
					<rect x="0" y="823.465" width="66.6142" height="18.4252" class="st13"/>
					<text x="19.8" y="836.28" class="st14" v:langID="1033"><v:paragraph v:horizAlign="1"/><v:tabList/>UART</text>				</g>
			</g>
		</g>
		<g id="group34-53" transform="translate(283.89,-408.788)" v:mID="34" v:groupContext="group">
			<title>Sheet.34</title>
			<g id="shape35-54" v:mID="35" v:groupContext="shape">
				<title>Sheet.35</title>
				<desc>PZEM</desc>
				<v:textBlock v:margins="rect(4,4,4,4)" v:tabSpace="42.5197"/>
				<v:textRect cx="62.3622" cy="753.323" width="124.73" height="177.134"/>
				<rect x="0" y="664.756" width="124.724" height="177.134" class="st1"/>
				<text x="34.42" y="760.52" class="st2" v:langID="1033"><v:paragraph v:horizAlign="1"/><v:tabList/>PZEM</text>			</g>
			<g id="shape36-57" v:mID="36" v:groupContext="shape" transform="translate(49.8653,-38.803)">
				<title>Sheet.36</title>
				<path d="M0 834.78 L0 834.42 L0 832.24 A9.64506 9.64506 0 0 1 9.65 822.6 L18.44 822.6 A9.64506 9.64506 0 0 1 28.09
							 832.24 L28.09 834.42" class="st4"/>
			</g>
			<g id="group37-64" transform="translate(38.5268,-40.7727)" v:mID="37" v:groupContext="group">
				<title>Sheet.37</title>
			</g>
			<g id="shape38-65" v:mID="38" v:groupContext="shape" v:layerMember="0" transform="translate(99.538,-9.98952)">
				<title>Sheet.38</title>
				<desc>L</desc>
				<v:textBlock v:margins="rect(4,4,4,4)" v:tabSpace="42.5197"/>
				<v:textRect cx="9.50446" cy="827.483" width="19.01" height="28.8135"/>
				<rect x="0" y="813.076" width="19.0089" height="28.8135" class="st6"/>
				<text x="6.97" y="831.08" class="st7" v:langID="1033"><v:paragraph v:horizAlign="1"/><v:tabList/>L</text>			</g>
			<g id="shape39-68" v:mID="39" v:groupContext="shape" v:layerMember="0" transform="translate(66.0305,-10.223)">
				<title>Sheet.39</title>
				<desc>N</desc>
				<v:textBlock v:margins="rect(4,4,4,4)" v:tabSpace="42.5197"/>
				<v:textRect cx="9.50446" cy="827.483" width="19.01" height="28.8135"/>
				<rect x="0" y="813.076" width="19.0089" height="28.8135" class="st8"/>
				<text x="5.55" y="831.08" class="st7" v:langID="1033"><v:paragraph v:horizAlign="1"/><v:tabList/>N</text>			</g>
			<g id="shape40-71" v:mID="40" v:groupContext="shape" v:layerMember="0" transform="translate(44.3538,-10.4565)">
				<title>Sheet.40</title>
				<desc>T</desc>
				<v:textBlock v:margins="rect(4,4,4,4)" v:tabSpace="42.5197"/>
				<v:textRect cx="9.50446" cy="827.483" width="19.01" height="28.8135"/>
				<rect x="0" y="813.076" width="19.0089" height="28.8135" class="st9"/>
				<text x="6.53" y="831.08" class="st7" v:langID="1033"><v:paragraph v:horizAlign="1"/><v:tabList/>T</text>			</g>
			<g id="shape41-74" v:mID="41" v:groupContext="shape" v:layerMember="0" transform="translate(10.5465,-10.4565)">
				<title>Sheet.41</title>
				<desc>C</desc>
				<v:textBlock v:margins="rect(4,4,4,4)" v:tabSpace="42.5197"/>
				<v:textRect cx="9.50446" cy="827.483" width="19.01" height="28.8135"/>
				<rect x="0" y="813.076" width="19.0089" height="28.8135" class="st9"/>
				<text x="6.33" y="831.08" class="st7" v:langID="1033"><v:paragraph v:horizAlign="1"/><v:tabList/>C</text>			</g>
			<g id="group42-77" transform="translate(22.8436,-126.677)" v:mID="42" v:groupContext="group">
				<title>Sheet.42</title>
				<g id="group43-78" transform="translate(0,-17.9582)" v:mID="43" v:groupContext="group">
					<title>Sheet.43</title>
					<g id="shape44-79" v:mID="44" v:groupContext="shape" v:layerMember="0" transform="translate(60.0283,0)">
						<title>Sheet.44</title>
						<desc>Vcc</desc>
						<v:textBlock v:margins="rect(4,4,4,4)" v:tabSpace="42.5197"/>
						<v:textRect cx="9.50446" cy="827.483" width="19.01" height="28.8135"/>
						<rect x="0" y="813.076" width="19.0089" height="28.8135" class="st10"/>
						<text x="5.96" y="823.88" class="st7" v:langID="1033"><v:paragraph v:horizAlign="1"/><v:tabList/>V<tspan
									x="4.48" dy="1.2em" class="st11">cc</tspan></text>					</g>
					<g id="shape45-83" v:mID="45" v:groupContext="shape" v:layerMember="0" transform="translate(40.0189,0)">
						<title>Sheet.45</title>
						<desc>Rx</desc>
						<v:textBlock v:margins="rect(4,4,4,4)" v:tabSpace="42.5197"/>
						<v:textRect cx="9.50446" cy="827.483" width="19.01" height="28.8135"/>
						<rect x="0" y="813.076" width="19.0089" height="28.8135" class="st8"/>
						<text x="6.13" y="823.88" class="st7" v:langID="1033"><v:paragraph v:horizAlign="1"/><v:tabList/>R<tspan
									x="6.75" dy="1.2em" class="st11">x</tspan></text>					</g>
					<g id="shape46-87" v:mID="46" v:groupContext="shape" v:layerMember="0" transform="translate(20.0094,0)">
						<title>Sheet.46</title>
						<desc>Tx</desc>
						<v:textBlock v:margins="rect(4,4,4,4)" v:tabSpace="42.5197"/>
						<v:textRect cx="9.50446" cy="827.483" width="19.01" height="28.8135"/>
						<rect x="0" y="813.076" width="19.0089" height="28.8135" class="st9"/>
						<text x="6.53" y="823.88" class="st7" v:langID="1033"><v:paragraph v:horizAlign="1"/><v:tabList/>T<tspan
									x="6.75" dy="1.2em" class="st11">x</tspan></text>					</g>
					<g id="shape47-91" v:mID="47" v:groupContext="shape" v:layerMember="0">
						<title>Sheet.47</title>
						<desc>G</desc>
						<v:textBlock v:margins="rect(4,4,4,4)" v:tabSpace="42.5197"/>
						<v:textRect cx="9.50446" cy="827.483" width="19.01" height="28.8135"/>
						<rect x="0" y="813.076" width="19.0089" height="28.8135" class="st12"/>
						<text x="5.68" y="831.08" class="st7" v:langID="1033"><v:paragraph v:horizAlign="1"/><v:tabList/>G</text>					</g>
				</g>
				<g id="shape48-94" v:mID="48" v:groupContext="shape" transform="translate(6.21151,0)">
					<title>Sheet.48</title>
					<desc>UART</desc>
					<v:textBlock v:margins="rect(4,4,4,4)" v:tabSpace="42.5197"/>
					<v:textRect cx="33.3071" cy="832.677" width="66.62" height="18.4252"/>
					<rect x="0" y="823.465" width="66.6142" height="18.4252" class="st13"/>
					<text x="19.8" y="836.28" class="st14" v:langID="1033"><v:paragraph v:horizAlign="1"/><v:tabList/>UART</text>				</g>
			</g>
		</g>
		<g id="shape49-97" v:mID="49" v:groupContext="shape" transform="translate(314.374,-259.331)">
			<title>Concentric layer 2.49</title>
			<v:userDefs>
				<v:ud v:nameU="ControlX" v:val="VT0(0.39370078740157):24"/>
				<v:ud v:nameU="Scale" v:val="VT0(1):26"/>
				<v:ud v:nameU="AntiScale" v:val="VT0(1):26"/>
				<v:ud v:nameU="visVersion" v:val="VT0(15):26"/>
				<v:ud v:nameU="ControlX" v:prompt="" v:val="VT0(0.15748031):1"/>
			</v:userDefs>
			<path d="M0 817.49 A24.3974 24.3974 -180 0 0 48.79 817.49 A24.3974 24.3974 -180 0 0 0 817.49 ZM11.34 817.49 A13.0588
						 13.0588 0 0 1 37.46 817.49 A13.0588 13.0588 0 0 1 11.34 817.49 Z" class="st3"/>
		</g>
		<g id="shape51-99" v:mID="51" v:groupContext="shape" v:layerMember="1" transform="translate(226.099,-418.777)">
			<title>Dynamic connector.51</title>
			<path d="M7.03 841.89 L7.14 877.84" class="st15"/>
		</g>
		<g id="shape52-102" v:mID="52" v:groupContext="shape" v:layerMember="1" transform="translate(65.5306,-386.079)">
			<title>Dynamic connector.52</title>
		</g>
		<g id="shape55-103" v:mID="55" v:groupContext="shape" v:layerMember="1" transform="translate(202.042,-419.011)">
			<title>Dynamic connector.55</title>
			<path d="M0 841.89 L0 867.74 L-81.38 867.74 A3.54331 3.54331 -180 1 0 -88.47 867.74 L-129.42 867.74" class="st16"/>
		</g>
		<g id="shape56-106" v:mID="56" v:groupContext="shape" v:layerMember="1" transform="translate(359.365,-419.011)">
			<title>Dynamic connector.56</title>
			<path d="M0 841.89 L0 867.74 L-50.76 867.74 A3.54331 3.54331 -180 0 0 -57.85 867.74 L-123.79 867.74 A2.3622 2.3622 -180
						 0 0 -128.52 867.74 L-157.32 867.74" class="st16"/>
		</g>
		<g id="group57-109" transform="translate(441.213,-408.788)" v:mID="57" v:groupContext="group">
			<title>Sheet.57</title>
			<g id="shape58-110" v:mID="58" v:groupContext="shape">
				<title>Sheet.58</title>
				<desc>PZEM</desc>
				<v:textBlock v:margins="rect(4,4,4,4)" v:tabSpace="42.5197"/>
				<v:textRect cx="62.3622" cy="753.323" width="124.73" height="177.134"/>
				<rect x="0" y="664.756" width="124.724" height="177.134" class="st1"/>
				<text x="34.42" y="760.52" class="st2" v:langID="1033"><v:paragraph v:horizAlign="1"/><v:tabList/>PZEM</text>			</g>
			<g id="shape59-113" v:mID="59" v:groupContext="shape" transform="translate(49.8653,-38.803)">
				<title>Sheet.59</title>
				<path d="M0 834.78 L0 834.42 L0 832.24 A9.64506 9.64506 0 0 1 9.65 822.6 L18.44 822.6 A9.64506 9.64506 0 0 1 28.09
							 832.24 L28.09 834.42" class="st4"/>
			</g>
			<g id="group60-120" transform="translate(38.5268,-40.7727)" v:mID="60" v:groupContext="group">
				<title>Sheet.60</title>
			</g>
			<g id="shape61-121" v:mID="61" v:groupContext="shape" v:layerMember="0" transform="translate(99.2126,-9.98952)">
				<title>Sheet.61</title>
				<desc>L</desc>
				<v:textBlock v:margins="rect(4,4,4,4)" v:tabSpace="42.5197"/>
				<v:textRect cx="9.50446" cy="827.483" width="19.01" height="28.8135"/>
				<rect x="0" y="813.076" width="19.0089" height="28.8135" class="st6"/>
				<text x="6.97" y="831.08" class="st7" v:langID="1033"><v:paragraph v:horizAlign="1"/><v:tabList/>L</text>			</g>
			<g id="shape62-124" v:mID="62" v:groupContext="shape" v:layerMember="0" transform="translate(66.0305,-10.223)">
				<title>Sheet.62</title>
				<desc>N</desc>
				<v:textBlock v:margins="rect(4,4,4,4)" v:tabSpace="42.5197"/>
				<v:textRect cx="9.50446" cy="827.483" width="19.01" height="28.8135"/>
				<rect x="0" y="813.076" width="19.0089" height="28.8135" class="st8"/>
				<text x="5.55" y="831.08" class="st7" v:langID="1033"><v:paragraph v:horizAlign="1"/><v:tabList/>N</text>			</g>
			<g id="shape63-127" v:mID="63" v:groupContext="shape" v:layerMember="0" transform="translate(44.3538,-10.4565)">
				<title>Sheet.63</title>
				<desc>T</desc>
				<v:textBlock v:margins="rect(4,4,4,4)" v:tabSpace="42.5197"/>
				<v:textRect cx="9.50446" cy="827.483" width="19.01" height="28.8135"/>
				<rect x="0" y="813.076" width="19.0089" height="28.8135" class="st9"/>
				<text x="6.53" y="831.08" class="st7" v:langID="1033"><v:paragraph v:horizAlign="1"/><v:tabList/>T</text>			</g>
			<g id="shape64-130" v:mID="64" v:groupContext="shape" v:layerMember="0" transform="translate(10.5465,-10.4565)">
				<title>Sheet.64</title>
				<desc>C</desc>
				<v:textBlock v:margins="rect(4,4,4,4)" v:tabSpace="42.5197"/>
				<v:textRect cx="9.50446" cy="827.483" width="19.01" height="28.8135"/>
				<rect x="0" y="813.076" width="19.0089" height="28.8135" class="st9"/>
				<text x="6.33" y="831.08" class="st7" v:langID="1033"><v:paragraph v:horizAlign="1"/><v:tabList/>C</text>			</g>
			<g id="group65-133" transform="translate(22.8436,-126.677)" v:mID="65" v:groupContext="group">
				<title>Sheet.65</title>
				<g id="group66-134" transform="translate(0,-17.9582)" v:mID="66" v:groupContext="group">
					<title>Sheet.66</title>
					<g id="shape67-135" v:mID="67" v:groupContext="shape" v:layerMember="0" transform="translate(60.0283,0)">
						<title>Sheet.67</title>
						<desc>Vcc</desc>
						<v:textBlock v:margins="rect(4,4,4,4)" v:tabSpace="42.5197"/>
						<v:textRect cx="9.50446" cy="827.483" width="19.01" height="28.8135"/>
						<rect x="0" y="813.076" width="19.0089" height="28.8135" class="st10"/>
						<text x="5.96" y="823.88" class="st7" v:langID="1033"><v:paragraph v:horizAlign="1"/><v:tabList/>V<tspan
									x="4.48" dy="1.2em" class="st11">cc</tspan></text>					</g>
					<g id="shape68-139" v:mID="68" v:groupContext="shape" v:layerMember="0" transform="translate(40.0189,0)">
						<title>Sheet.68</title>
						<desc>Rx</desc>
						<v:textBlock v:margins="rect(4,4,4,4)" v:tabSpace="42.5197"/>
						<v:textRect cx="9.50446" cy="827.483" width="19.01" height="28.8135"/>
						<rect x="0" y="813.076" width="19.0089" height="28.8135" class="st8"/>
						<text x="6.13" y="823.88" class="st7" v:langID="1033"><v:paragraph v:horizAlign="1"/><v:tabList/>R<tspan
									x="6.75" dy="1.2em" class="st11">x</tspan></text>					</g>
					<g id="shape69-143" v:mID="69" v:groupContext="shape" v:layerMember="0" transform="translate(20.0094,0)">
						<title>Sheet.69</title>
						<desc>Tx</desc>
						<v:textBlock v:margins="rect(4,4,4,4)" v:tabSpace="42.5197"/>
						<v:textRect cx="9.50446" cy="827.483" width="19.01" height="28.8135"/>
						<rect x="0" y="813.076" width="19.0089" height="28.8135" class="st9"/>
						<text x="6.53" y="823.88" class="st7" v:langID="1033"><v:paragraph v:horizAlign="1"/><v:tabList/>T<tspan
									x="6.75" dy="1.2em" class="st11">x</tspan></text>					</g>
					<g id="shape70-147" v:mID="70" v:groupContext="shape" v:layerMember="0">
						<title>Sheet.70</title>
						<desc>G</desc>
						<v:textBlock v:margins="rect(4,4,4,4)" v:tabSpace="42.5197"/>
						<v:textRect cx="9.50446" cy="827.483" width="19.01" height="28.8135"/>
						<rect x="0" y="813.076" width="19.0089" height="28.8135" class="st12"/>
						<text x="5.68" y="831.08" class="st7" v:langID="1033"><v:paragraph v:horizAlign="1"/><v:tabList/>G</text>					</g>
				</g>
				<g id="shape71-150" v:mID="71" v:groupContext="shape" transform="translate(6.21151,0)">
					<title>Sheet.71</title>
					<desc>UART</desc>
					<v:textBlock v:margins="rect(4,4,4,4)" v:tabSpace="42.5197"/>
					<v:textRect cx="33.3071" cy="832.677" width="66.62" height="18.4252"/>
					<rect x="0" y="823.465" width="66.6142" height="18.4252" class="st13"/>
					<text x="19.8" y="836.28" class="st14" v:langID="1033"><v:paragraph v:horizAlign="1"/><v:tabList/>UART</text>				</g>
			</g>
		</g>
		<g id="shape73-153" v:mID="73" v:groupContext="shape" v:layerMember="1" transform="translate(516.688,-419.011)">
			<title>Dynamic connector</title>
			<path d="M0 841.89 L0 867.74 L-80.62 867.74 A3.92403 3.92403 -180 0 0 -88.47 867.74 L-121.57 867.74 A2.3622 2.3622 -180
						 0 0 -126.29 867.74 L-157.32 867.74" class="st16"/>
		</g>
		<g id="shape74-156" v:mID="74" v:groupContext="shape" transform="translate(441.213,-259.331)">
			<title>Concentric layer 2.74</title>
			<v:userDefs>
				<v:ud v:nameU="ControlX" v:val="VT0(0.39370078740157):24"/>
				<v:ud v:nameU="Scale" v:val="VT0(1):26"/>
				<v:ud v:nameU="AntiScale" v:val="VT0(1):26"/>
				<v:ud v:nameU="visVersion" v:val="VT0(15):26"/>
				<v:ud v:nameU="ControlX" v:prompt="" v:val="VT0(0.15748031):1"/>
			</v:userDefs>
			<path d="M0 817.49 A24.3974 24.3974 -180 0 0 48.79 817.49 A24.3974 24.3974 -180 0 0 0 817.49 ZM11.34 817.49 A13.0588
						 13.0588 0 0 1 37.46 817.49 A13.0588 13.0588 0 0 1 11.34 817.49 Z" class="st3"/>
		</g>
		<g id="group79-158" transform="translate(-591.466,491.244) rotate(-90)" v:mID="79" v:groupContext="group">
			<title>Sheet.79</title>
			<g id="shape77-159" v:mID="77" v:groupContext="shape" v:layerMember="0" transform="translate(-2.19824E-014,-10.7328)">
				<title>Sheet.77</title>
				<desc>Fuse</desc>
				<v:textBlock v:margins="rect(4,4,4,4)" v:tabSpace="42.5197"/>
				<v:textRect cx="16.0908" cy="835.918" width="32.19" height="11.9444"/>
				<rect x="0" y="829.945" width="32.1816" height="11.9444" class="st17"/>
				<text x="8.5" y="838.32" class="st18" v:langID="1033"><v:paragraph v:horizAlign="1"/><v:tabList/>Fuse  </text>			</g>
			<g id="shape78-162" v:mID="78" v:groupContext="shape">
				<title>Sheet.78</title>
				<desc>0.1-0.5 A</desc>
				<v:textBlock v:margins="rect(4,4,4,4)" v:tabSpace="42.5197"/>
				<v:textRect cx="17.0079" cy="836.523" width="34.02" height="10.7328"/>
				<rect x="0" y="831.157" width="34.0157" height="10.7328" class="st13"/>
				<text x="6.08" y="838.32" class="st19" v:langID="1033"><v:paragraph v:horizAlign="1"/><v:tabList/>0.1-0.5 A</text>			</g>
		</g>
		<g id="group80-165" transform="translate(-431.95,491.244) rotate(-90)" v:mID="80" v:groupContext="group">
			<title>Sheet.80</title>
			<g id="shape81-166" v:mID="81" v:groupContext="shape" v:layerMember="0" transform="translate(-2.19824E-014,-10.7328)">
				<title>Sheet.81</title>
				<desc>Fuse</desc>
				<v:textBlock v:margins="rect(4,4,4,4)" v:tabSpace="42.5197"/>
				<v:textRect cx="16.0908" cy="835.918" width="32.19" height="11.9444"/>
				<rect x="0" y="829.945" width="32.1816" height="11.9444" class="st17"/>
				<text x="8.5" y="838.32" class="st18" v:langID="1033"><v:paragraph v:horizAlign="1"/><v:tabList/>Fuse  </text>			</g>
			<g id="shape82-169" v:mID="82" v:groupContext="shape">
				<title>Sheet.82</title>
				<desc>0.1-0.5 A</desc>
				<v:textBlock v:margins="rect(4,4,4,4)" v:tabSpace="42.5197"/>
				<v:textRect cx="17.0079" cy="836.523" width="34.02" height="10.7328"/>
				<rect x="0" y="831.157" width="34.0157" height="10.7328" class="st13"/>
				<text x="6.08" y="838.32" class="st19" v:langID="1033"><v:paragraph v:horizAlign="1"/><v:tabList/>0.1-0.5 A</text>			</g>
		</g>
		<g id="shape83-172" v:mID="83" v:groupContext="shape" v:layerMember="1" transform="translate(385.727,-382.827)">
			<title>Dynamic connector.83</title>
			<path d="M7.03 841.89 L7.03 816.57 L7.15 816.57 L7.15 805.94" class="st20"/>
		</g>
		<g id="group84-175" transform="translate(-276.044,491.244) rotate(-90)" v:mID="84" v:groupContext="group">
			<title>Sheet.84</title>
			<g id="shape85-176" v:mID="85" v:groupContext="shape" v:layerMember="0" transform="translate(-2.19824E-014,-9.61837)">
				<title>Sheet.85</title>
				<desc>Fuse</desc>
				<v:textBlock v:margins="rect(4,4,4,4)" v:tabSpace="42.5197"/>
				<v:textRect cx="16.0908" cy="835.918" width="32.19" height="11.9444"/>
				<rect x="0" y="829.945" width="32.1816" height="11.9444" class="st17"/>
				<text x="8.5" y="838.32" class="st18" v:langID="1033"><v:paragraph v:horizAlign="1"/><v:tabList/>Fuse  </text>			</g>
			<g id="shape86-179" v:mID="86" v:groupContext="shape">
				<title>Sheet.86</title>
				<desc>0.1-0.5 A</desc>
				<v:textBlock v:margins="rect(4,4,4,4)" v:tabSpace="42.5197"/>
				<v:textRect cx="17.0079" cy="836.523" width="34.02" height="10.7328"/>
				<rect x="0" y="831.157" width="34.0157" height="10.7328" class="st13"/>
				<text x="6.08" y="838.32" class="st19" v:langID="1033"><v:paragraph v:horizAlign="1"/><v:tabList/>0.1-0.5 A</text>			</g>
		</g>
		<g id="shape87-182" v:mID="87" v:groupContext="shape" v:layerMember="1" transform="translate(542.736,-382.827)">
			<title>Dynamic connector.87</title>
			<path d="M7.04 841.89 L7.04 816.57 L7.13 816.57 L7.13 805.94" class="st21"/>
		</g>
		<g id="shape88-185" v:mID="88" v:groupContext="shape" v:layerMember="1" transform="translate(233.719,-355.606)">
			<title>Dynamic connector.88</title>
			<path d="M0 846.85 L0 851.1 L-113.06 851.1 A3.54331 3.54331 -180 1 0 -120.14 851.1 L-141.73 851.1 A2.3622 2.3622 -180
						 0 0 -146.46 851.1 L-161.1 851.1" class="st15"/>
		</g>
		<g id="shape90-188" v:mID="90" v:groupContext="shape" v:layerMember="1" transform="translate(393.235,-350.646)">
			<title>Dynamic connector.90</title>
			<path d="M0 841.89 L0 856.06 L-84.63 856.06 A3.54331 3.54331 -180 0 0 -91.72 856.06 L-240.25 856.06 A2.3622 2.3622 -180
						 0 0 -244.98 856.06 L-272.57 856.06 A3.54331 3.54331 -180 1 0 -279.66 856.06 L-301.25 856.06 A2.3622 2.3622
						 -180 0 0 -305.97 856.06 L-320.62 856.06" class="st20"/>
		</g>
		<g id="shape91-191" v:mID="91" v:groupContext="shape" v:layerMember="1" transform="translate(550.255,-350.646)">
			<title>Dynamic connector.91</title>
			<path d="M0 841.89 L0 865.51 L-114.19 865.51 A3.92403 3.92403 -180 1 0 -122.03 865.51 L-209.49 865.51 A2.3622 2.3622
						 -180 1 0 -214.21 865.51 L-241.65 865.51 A3.54331 3.54331 -180 1 0 -248.74 865.51 L-397.22 865.51 A2.3622
						 2.3622 -180 0 0 -401.95 865.51 L-429.59 865.51 A3.54331 3.54331 -180 0 0 -436.68 865.51 L-458.27 865.51
						 A2.3622 2.3622 -180 0 0 -462.99 865.51 L-477.64 865.51" class="st21"/>
		</g>
		<g id="shape92-194" v:mID="92" v:groupContext="shape" v:layerMember="1" transform="translate(157.854,-270.67)">
			<title>Dynamic connector.92</title>
			<path d="M-6.89 841.89 L-7.28 766.17" class="st15"/>
		</g>
		<g id="shape93-197" v:mID="93" v:groupContext="shape" v:layerMember="1" transform="translate(345.643,-270.67)">
			<title>Dynamic connector.93</title>
			<path d="M-6.87 841.89 L-7.3 776.02" class="st20"/>
		</g>
		<g id="shape94-200" v:mID="94" v:groupContext="shape" v:layerMember="1" transform="translate(471.082,-270.67)">
			<title>Dynamic connector.94</title>
			<path d="M-5.47 841.89 L-5.47 785.54 L-8.7 785.54" class="st21"/>
		</g>
		<g id="shape95-203" v:mID="95" v:groupContext="shape" v:layerMember="1" transform="translate(158.279,-228.756)">
			<title>Dynamic connector.95</title>
			<desc>LOAD</desc>
			<v:textBlock v:margins="rect(4,4,4,4)" v:tabSpace="42.5197"/>
			<v:textRect cx="-7.08661" cy="826.602" width="40" height="17.6036"/>
			<path d="M-6.86 841.89 L-7.31 811.31" class="st15"/>
			<rect v:rectContext="textBkgnd" x="-16.192" y="821.802" width="18.2107" height="9.59985" class="st22"/>
			<text x="-16.19" y="829" class="st23" v:langID="1033"><v:paragraph v:horizAlign="1"/><v:tabList/>LOAD</text>		</g>
		<g id="shape96-208" v:mID="96" v:groupContext="shape" v:layerMember="1" transform="translate(346.086,-228.756)">
			<title>Dynamic connector.96</title>
			<desc>LOAD</desc>
			<v:textBlock v:margins="rect(4,4,4,4)" v:tabSpace="42.5197"/>
			<v:textRect cx="-7.08661" cy="826.602" width="40" height="17.6036"/>
			<path d="M-6.86 841.89 L-7.31 811.31" class="st15"/>
			<rect v:rectContext="textBkgnd" x="-16.192" y="821.802" width="18.2107" height="9.59985" class="st22"/>
			<text x="-16.19" y="829" class="st23" v:langID="1033"><v:paragraph v:horizAlign="1"/><v:tabList/>LOAD</text>		</g>
		<g id="shape97-213" v:mID="97" v:groupContext="shape" v:layerMember="1" transform="translate(472.925,-228.756)">
			<title>Dynamic connector.97</title>
			<desc>LOAD</desc>
			<v:textBlock v:margins="rect(4,4,4,4)" v:tabSpace="42.5197"/>
			<v:textRect cx="-7.08661" cy="826.602" width="40" height="17.6036"/>
			<path d="M-6.86 841.89 L-7.31 811.31" class="st15"/>
			<rect v:rectContext="textBkgnd" x="-16.192" y="821.802" width="18.2107" height="9.59985" class="st22"/>
			<text x="-16.19" y="829" class="st23" v:langID="1033"><v:paragraph v:horizAlign="1"/><v:tabList/>LOAD</text>		</g>
		<g id="shape99-218" v:mID="99" v:groupContext="shape" transform="translate(18.1532,-387.496)">
			<title>Sheet.99</title>
			<desc>Neutral</desc>
			<v:textBlock v:margins="rect(4,4,4,4)" v:tabSpace="42.5197"/>
			<v:textRect cx="24.3974" cy="834.803" width="48.8" height="14.1732"/>
			<rect x="0" y="827.717" width="48.7948" height="14.1732" class="st13"/>
			<text x="6.03" y="838.4" class="st14" v:langID="1033"><v:paragraph v:horizAlign="1"/><v:tabList/>Neutral</text>		</g>
		<g id="shape100-221" v:mID="100" v:groupContext="shape" transform="translate(18.759,-344.976)">
			<title>Sheet.100</title>
			<desc>Phase 1</desc>
			<v:textBlock v:margins="rect(4,4,4,4)" v:tabSpace="42.5197"/>
			<v:textRect cx="24.3974" cy="834.803" width="48.8" height="14.1732"/>
			<rect x="0" y="827.717" width="48.7948" height="14.1732" class="st13"/>
			<text x="5.54" y="838.4" class="st24" v:langID="1033"><v:paragraph v:horizAlign="1"/><v:tabList/>Phase 1</text>		</g>
		<g id="shape101-224" v:mID="101" v:groupContext="shape" transform="translate(19.0133,-330.803)">
			<title>Sheet.101</title>
			<desc>Phase 2</desc>
			<v:textBlock v:margins="rect(4,4,4,4)" v:tabSpace="42.5197"/>
			<v:textRect cx="24.3974" cy="834.803" width="48.8" height="14.1732"/>
			<rect x="0" y="827.717" width="48.7948" height="14.1732" class="st13"/>
			<text x="5.54" y="838.4" class="st25" v:langID="1033"><v:paragraph v:horizAlign="1"/><v:tabList/>Phase 2</text>		</g>
		<g id="shape102-227" v:mID="102" v:groupContext="shape" transform="translate(18.759,-316.63)">
			<title>Sheet.102</title>
			<desc>Phase 3</desc>
			<v:textBlock v:margins="rect(4,4,4,4)" v:tabSpace="42.5197"/>
			<v:textRect cx="24.3974" cy="834.803" width="48.8" height="14.1732"/>
			<rect x="0" y="827.717" width="48.7948" height="14.1732" class="st13"/>
			<text x="5.54" y="838.4" class="st26" v:langID="1033"><v:paragraph v:horizAlign="1"/><v:tabList/>Phase 3</text>		</g>
		<g id="shape107-230" v:mID="107" v:groupContext="shape" v:layerMember="1" transform="translate(146.558,-419.244)">
			<title>Dynamic connector.107</title>
			<path d="M0 841.89 L0 857.93 L-30.62 857.93 L-30.62 977.41 L-19.99 977.41" class="st27"/>
		</g>
		<g id="shape109-233" v:mID="109" v:groupContext="shape" v:layerMember="1" transform="translate(180.365,-419.244)">
			<title>Dynamic connector.109</title>
			<path d="M0 841.89 L0 860.88 L-62.07 860.88 L-62.07 971.76 L-53.14 971.76" class="st27"/>
		</g>
		<g id="shape110-236" v:mID="110" v:groupContext="shape" v:layerMember="1" transform="translate(302.041,-419.244)">
			<title>Dynamic connector.110</title>
			<path d="M1.84 841.89 L1.84 977.41 L12.33 977.41" class="st27"/>
		</g>
		<g id="shape112-239" v:mID="112" v:groupContext="shape" v:layerMember="1" transform="translate(461.204,-419.244)">
			<title>Dynamic connector.112</title>
			<path d="M0 841.89 L0 858.52 L-30.62 858.52 L-30.62 977.41 L-19.99 977.41" class="st27"/>
		</g>
		<g id="shape113-242" v:mID="113" v:groupContext="shape" v:layerMember="1" transform="translate(495.011,-419.244)">
			<title>Dynamic connector.113</title>
			<path d="M0 841.89 L0 860.88 L-61.3 860.88 L-61.3 972.68 L-53.34 972.68" class="st27"/>
		</g>
		<g id="shape114-245" v:mID="114" v:groupContext="shape" v:layerMember="1" transform="translate(337.688,-419.244)">
			<title>Dynamic connector.114</title>
			<path d="M0 841.89 L0 859.46 L-31.45 859.46 L-31.45 971.98 L-22.7 971.98" class="st27"/>
		</g>
		<g id="shape115-248" v:mID="115" v:groupContext="shape" v:layerMember="1" transform="translate(82.5385,-393.165)">
			<title>Dynamic connector.115</title>
			<path d="M7.09 841.89 L7.09 1006.3" class="st16"/>
		</g>
		<g id="shape147-251" v:mID="147" v:groupContext="shape" v:layerMember="1" transform="translate(316.178,-582.236)">
			<title>Dynamic connector.147</title>
			<path d="M0 841.89 L-0 825.45 L-30.23 825.45" class="st27"/>
		</g>
		<g id="shape148-254" v:mID="148" v:groupContext="shape" v:layerMember="1" transform="translate(473.501,-582.236)">
			<title>Dynamic connector.148</title>
			<path d="M0 841.89 L0 825.45 L-114.94 825.45 A2.3622 2.3622 -180 0 0 -119.67 825.45 L-134.95 825.45 A2.3622 2.3622 -180
						 1 0 -139.68 825.45 L-272.26 825.45 A2.3622 2.3622 -180 1 0 -276.99 825.45 L-292.27 825.45 A2.3622 2.3622
						 -180 0 0 -297 825.45 L-314.65 825.45 L-314.65 797.1 L-181.89 797.1 L-181.89 787.19" class="st27"/>
		</g>
		<g id="shape150-257" v:mID="150" v:groupContext="shape" v:layerMember="1" transform="translate(376.206,-579.827)">
			<title>Dynamic connector.150</title>
			<path d="M0 839.48 L0 830.13 L94.93 830.13 A2.3622 2.3622 0 0 1 99.66 830.13 L114.94 830.13 A2.3622 2.3622 0 1 1 119.67
						 830.13 L134.95 830.13 A2.3622 2.3622 0 0 1 139.68 830.13 L157.32 830.13" class="st28"/>
		</g>
		<g id="shape151-260" v:mID="151" v:groupContext="shape" v:layerMember="1" transform="translate(533.529,-582.236)">
			<title>Dynamic connector.151</title>
			<path d="M0 841.89 L0 797.1 L-147.19 797.1 L-147.19 787.19" class="st28"/>
		</g>
		<g id="shape155-263" v:mID="155" v:groupContext="shape" v:layerMember="1" transform="translate(513.52,-582.236)">
			<title>Dynamic connector.155</title>
			<path d="M0 841.89 L-0 811.28 L-17.65 811.28 A2.3622 2.3622 -180 0 0 -22.37 811.28 L-158.95 811.28 L-158.95 787.19"
					class="st29"/>
		</g>
		<g id="shape160-266" v:mID="160" v:groupContext="shape" v:layerMember="1" transform="translate(151.769,-582.236)">
			<title>Dynamic connector.160</title>
			<path d="M7.09 841.89 L7.09 825.45" class="st27"/>
		</g>
		<g id="shape161-269" v:mID="161" v:groupContext="shape" v:layerMember="1" transform="translate(362.47,-582.236)">
			<title>Dynamic connector.161</title>
			<path d="M-6.27 841.89 L-6.27 818.36 L-7.9 818.36 L-7.9 787.19" class="st29"/>
		</g>
		<g id="shape162-272" v:mID="162" v:groupContext="shape" v:layerMember="1" transform="translate(198.874,-582.236)">
			<title>Dynamic connector.162</title>
			<path d="M0 841.89 L0 811.28 L121.66 811.28 A2.3622 2.3622 0 0 1 126.38 811.28 L155.7 811.28 L155.7 787.19"
					class="st29"/>
		</g>
		<g id="shape163-275" v:mID="163" v:groupContext="shape" v:layerMember="1" transform="translate(178.865,-582.236)">
			<title>Dynamic connector.163</title>
			<path d="M0 841.89 L-0 804.19 L144.03 804.19 L144.03 787.07" class="st30"/>
		</g>
		<g id="shape164-278" v:mID="164" v:groupContext="shape" v:layerMember="1" transform="translate(336.626,-582.236)">
			<title>Dynamic connector.164</title>
			<path d="M-0.44 841.89 L-0.44 818.77 L-13.73 818.77 L-13.73 787.07" class="st30"/>
		</g>
		<g id="shape165-281" v:mID="165" v:groupContext="shape" v:layerMember="1" transform="translate(493.51,-582.236)">
			<title>Dynamic connector.165</title>
			<path d="M0 841.89 L0 804.19 L-136.58 804.19 A2.3622 2.3622 -180 1 0 -141.3 804.19 L-170.62 804.19 L-170.62 787.07"
					class="st30"/>
		</g>
		<g id="shape166-284" v:mID="166" v:groupContext="shape" v:layerMember="1" transform="translate(218.884,-579.827)">
			<title>Dynamic connector.166</title>
			<path d="M0 839.48 L0 830.13 L94.93 830.13 A2.3622 2.3622 0 0 1 99.66 830.13 L114.94 830.13 A2.3622 2.3622 0 1 1 119.67
						 830.13 L134.95 830.13 A2.3622 2.3622 0 0 1 139.68 830.13 L157.32 830.13" class="st28"/>
		</g>
		<g id="group139-287" transform="translate(276.712,-608.598)" v:mID="139" v:groupContext="group">
			<title>Sheet.139</title>
			<g id="group140-288" transform="translate(0,-28.3389)" v:mID="140" v:groupContext="group">
				<title>Sheet.140</title>
				<g id="shape141-289" v:mID="141" v:groupContext="shape" v:layerMember="0" transform="translate(94.7275,0)">
					<title>Sheet.141</title>
					<desc>3.3v</desc>
					<v:textBlock v:margins="rect(4,4,4,4)" v:tabSpace="42.5197"/>
					<v:textRect cx="14.9985" cy="819.155" width="30" height="45.469"/>
					<rect x="0" y="796.421" width="29.997" height="45.469" class="st10"/>
					<text x="4.48" y="822.76" class="st7" v:langID="1033"><v:paragraph v:horizAlign="1"/><v:tabList/>3.3v</text>				</g>
				<g id="shape142-292" v:mID="142" v:groupContext="shape" v:layerMember="0" transform="translate(31.2756,-0.114657)">
					<title>Sheet.142</title>
					<desc>Rx</desc>
					<v:textBlock v:margins="rect(4,4,4,4)" v:tabSpace="42.5197"/>
					<v:textRect cx="14.9985" cy="819.155" width="30" height="45.469"/>
					<rect x="0" y="796.421" width="29.997" height="45.469" class="st8"/>
					<text x="8.86" y="822.76" class="st7" v:langID="1033"><v:paragraph v:horizAlign="1"/><v:tabList/>Rx</text>				</g>
				<g id="shape143-295" v:mID="143" v:groupContext="shape" v:layerMember="0"
						transform="translate(62.9543,1.13687E-013)">
					<title>Sheet.143</title>
					<desc>Tx</desc>
					<v:textBlock v:margins="rect(4,4,4,4)" v:tabSpace="42.5197"/>
					<v:textRect cx="14.9985" cy="819.155" width="30" height="45.469"/>
					<rect x="0" y="796.421" width="29.997" height="45.469" class="st9"/>
					<text x="9.27" y="822.76" class="st7" v:langID="1033"><v:paragraph v:horizAlign="1"/><v:tabList/>Tx</text>				</g>
				<g id="shape144-298" v:mID="144" v:groupContext="shape" v:layerMember="0">
					<title>Sheet.144</title>
					<desc>G</desc>
					<v:textBlock v:margins="rect(4,4,4,4)" v:tabSpace="42.5197"/>
					<v:textRect cx="14.9985" cy="819.155" width="30" height="45.469"/>
					<rect x="0" y="796.421" width="29.997" height="45.469" class="st12"/>
					<text x="11.18" y="822.76" class="st7" v:langID="1033"><v:paragraph v:horizAlign="1"/><v:tabList/>G</text>				</g>
			</g>
		</g>
	</g>
</svg>
